<?xml version="1.0" encoding="UTF-8" standalone="no"?>
<!-- Created with Serif DrawPlus 12,0,4,27 (May 24, 08:37:51) (http://www.serif.com) -->
<svg version="1.1" xmlns="http://www.w3.org/2000/svg" xmlns:xlink="http://www.w3.org/1999/xlink" width="1050" height="1050">
	<g id="Layer_1">
		<path id="dp_path001" transform="matrix(1,0,0,1,155.995,679.537)" fill="#1000b8" d="M 145.279,-125.252 L 242.543,-118.007 L 245.091,-108.451 L 141.775,-115.697 Z M 156.227,-306.721 L 264.24,-298.997 L 340.005,-20.544 L 327.185,-31.492 L 256.995,-289.84 L 162.319,-296.648 Z M 237.884,-138.551 L 152.724,-144.243 L 198.231,-265.076 L 208.263,-264.599 Z M 143.168,-327.265 L 12.3427,-23.3307 L 103.992,-17.2787 L 130.827,-86.992 L 252.575,-78.8307 L 269.815,-5.37467 L 367.317,1.39333 L 280.325,-317.669 Z M 212.444,-203.167 L 192.377,-151.569 L 225.024,-149.697 Z M 136.639,-337.616 L 288.009,-327.265 L 295.693,-298.997 L 307.119,-298.041 L 399.725,41.4053 L 277.06,32.8067 L 271.208,4.65867 L 261.175,3.70267 L 250.704,-41.048 L 153.679,-47.816 L 126.607,22.3347 L 13.2573,14.1733 L 25.4013,-12.3427 L -2.38933,-14.2133 Z "/>
		<path id="dp_path002" transform="matrix(1,0,0,1,155.995,679.537)" fill="#e50600" d="M 525.932,-45.7053 L 522.189,-54.584 L 661.177,-64.2187 L 663.049,-33.5227 L 653.016,-40.2907 L 652.539,-54.1453 Z M 434.283,-285.62 L 424.249,-294.26 L 638.803,-308.991 L 642.505,-248.275 L 503.04,-103.355 L 497.944,-111.995 L 632.951,-252.017 L 629.685,-298.957 Z M 402.113,-312.733 L 406.891,-249.708 L 566.024,-260.657 L 570.005,-251.54 L 410.475,-85.24 L 416.525,-0.477333 L 684.508,-19.668 L 679.811,-85.996 L 515.9,-74.292 L 511.679,-83.8867 L 663.487,-240.631 L 657.436,-330.449 Z M 391.761,-321.811 L 666.991,-340.801 L 668.861,-313.648 L 686.579,-314.803 L 693.585,-211.011 L 575.58,-88.3053 L 689.405,-96.348 L 691.277,-69.116 L 708.993,-70.0707 L 715.045,16.244 L 426.559,36.2307 L 424.688,8.6 L 406.891,9.99333 L 400.123,-88.584 L 526.371,-220.525 L 417.243,-212.364 L 415.132,-240.113 L 397.733,-239.197 Z "/>
	</g>
</svg>